<svg width="2000" height="2000" viewBox="0 0 2000 2000" fill="none" xmlns="http://www.w3.org/2000/svg">
<g id="1213 1">
<path id="Vector" d="M416.45 274.61L97.98 835.78H919.06L616.96 274.61H416.45Z" fill="#6DC8C2"/>
<path id="Vector_2" d="M683.61 521.35C687.992 512.47 690.297 502.71 690.351 492.808C690.405 482.907 688.207 473.122 683.923 464.195C679.639 455.267 673.382 447.431 665.623 441.278C657.865 435.125 648.809 430.817 639.14 428.68C634.976 427.768 631.176 425.642 628.22 422.57V422.52C622.56 416.6 621.59 411.29 613.56 395.2C612.7 393.46 611.98 392.06 611.56 391.26L544.67 417.2L562.8 472.63C559.071 484.334 558.718 496.852 561.782 508.748C564.845 520.644 571.2 531.434 580.119 539.882C589.037 548.329 600.156 554.09 612.2 556.504C624.244 558.919 636.725 557.888 648.21 553.53C648.759 559.019 650.822 564.248 654.169 568.634C657.516 573.019 662.016 576.389 667.166 578.367C672.316 580.344 677.914 580.853 683.337 579.835C688.759 578.817 693.791 576.313 697.874 572.602C701.956 568.891 704.927 564.119 706.456 558.818C707.985 553.518 708.011 547.896 706.532 542.582C705.053 537.267 702.126 532.467 698.079 528.718C694.032 524.969 689.022 522.418 683.61 521.35V521.35Z" fill="black"/>
<path id="Vector_3" d="M486.8 555.1C504.827 555.1 519.44 540.487 519.44 522.46C519.44 504.434 504.827 489.82 486.8 489.82C468.773 489.82 454.16 504.434 454.16 522.46C454.16 540.487 468.773 555.1 486.8 555.1Z" fill="black"/>
<path id="Vector_4" d="M591.78 436.25C591.81 430.509 589.578 424.987 585.568 420.879C581.557 416.771 576.09 414.408 570.35 414.3L569 399.6C568.604 394.938 567.291 390.4 565.138 386.247C562.984 382.093 560.033 378.405 556.451 375.394C552.87 372.383 548.73 370.109 544.268 368.701C539.806 367.293 535.111 366.78 530.45 367.19L476.3 372.24C469.211 372.943 462.69 376.429 458.166 381.932C453.643 387.436 451.487 394.509 452.17 401.6L458.17 467.74C458.643 473.294 460.208 478.7 462.773 483.648C465.339 488.596 468.856 492.989 473.123 496.576C477.39 500.162 482.322 502.872 487.638 504.549C492.953 506.226 498.548 506.838 504.1 506.35L506.61 506.11L510 542.77L581.53 536.11L577.53 492.69H577.47L574.29 457.78C579.242 456.76 583.688 454.059 586.876 450.135C590.064 446.211 591.796 441.306 591.78 436.25V436.25Z" fill="white"/>
<path id="Vector_5" d="M569.82 446.71C568.141 446.71 566.499 446.212 565.103 445.279C563.707 444.346 562.619 443.02 561.976 441.469C561.334 439.918 561.165 438.211 561.493 436.564C561.821 434.917 562.629 433.404 563.817 432.217C565.004 431.029 566.517 430.221 568.164 429.893C569.811 429.566 571.518 429.734 573.069 430.376C574.62 431.019 575.946 432.107 576.879 433.503C577.812 434.899 578.31 436.541 578.31 438.22C578.307 440.471 577.412 442.629 575.82 444.22C574.229 445.812 572.071 446.707 569.82 446.71ZM569.82 433.71C568.932 433.71 568.064 433.973 567.325 434.467C566.587 434.96 566.012 435.661 565.672 436.482C565.332 437.302 565.243 438.205 565.416 439.076C565.589 439.947 566.017 440.747 566.645 441.375C567.273 442.003 568.073 442.43 568.944 442.604C569.815 442.777 570.718 442.688 571.538 442.348C572.359 442.008 573.06 441.433 573.553 440.695C574.047 439.956 574.31 439.088 574.31 438.2C574.302 437.013 573.826 435.878 572.985 435.041C572.144 434.204 571.007 433.733 569.82 433.73V433.71Z" fill="black"/>
<path id="Vector_6" d="M506.46 506.17L549.05 500.88C549.324 500.845 549.601 500.91 549.832 501.061C550.063 501.213 550.232 501.442 550.309 501.707C550.386 501.972 550.366 502.256 550.253 502.507C550.139 502.759 549.94 502.962 549.69 503.08L508 523L506.46 506.17Z" fill="black"/>
<path id="Vector_7" d="M563.56 441.91C563.091 441.919 562.633 441.763 562.268 441.468C561.902 441.174 561.651 440.76 561.56 440.3C561.101 438.031 561.245 435.682 561.978 433.486C562.712 431.291 564.009 429.327 565.74 427.79C567.412 426.379 569.398 425.39 571.531 424.904C573.664 424.419 575.882 424.452 578 425C578.51 425.142 578.943 425.481 579.204 425.943C579.464 426.404 579.531 426.949 579.39 427.46C579.248 427.97 578.909 428.403 578.447 428.664C577.986 428.924 577.441 428.991 576.93 428.85C575.459 428.48 573.921 428.461 572.441 428.795C570.961 429.128 569.58 429.805 568.41 430.77C567.205 431.84 566.304 433.208 565.795 434.737C565.286 436.266 565.187 437.901 565.51 439.48C565.562 439.738 565.563 440.004 565.513 440.263C565.462 440.521 565.361 440.767 565.215 440.986C565.069 441.205 564.882 441.394 564.663 441.54C564.444 441.687 564.198 441.789 563.94 441.84C563.815 441.873 563.688 441.896 563.56 441.91Z" fill="black"/>
<path id="Vector_8" d="M464.93 442.89C467.266 442.89 469.16 440.996 469.16 438.66C469.16 436.324 467.266 434.43 464.93 434.43C462.594 434.43 460.7 436.324 460.7 438.66C460.7 440.996 462.594 442.89 464.93 442.89Z" fill="black"/>
<path id="Vector_9" d="M510.06 437.66C512.396 437.66 514.29 435.766 514.29 433.43C514.29 431.094 512.396 429.2 510.06 429.2C507.724 429.2 505.83 431.094 505.83 433.43C505.83 435.766 507.724 437.66 510.06 437.66Z" fill="black"/>
<path id="Vector_10" d="M483.26 455.53C483.101 455.53 482.943 455.51 482.79 455.47C479.6 454.7 476.3 453.54 476.07 450.87C476.046 449.857 476.424 448.876 477.12 448.14C477.32 447.88 477.55 447.58 477.8 447.19C478.734 445.693 479.207 443.954 479.16 442.19L479.07 423.75C479.07 423.22 479.281 422.711 479.656 422.336C480.031 421.961 480.54 421.75 481.07 421.75C481.6 421.75 482.109 421.961 482.484 422.336C482.859 422.711 483.07 423.22 483.07 423.75L483.16 442.19C483.187 444.696 482.493 447.157 481.16 449.28C480.84 449.77 480.58 450.13 480.35 450.43C481.411 450.946 482.533 451.326 483.69 451.56C484.172 451.67 484.596 451.954 484.881 452.357C485.165 452.761 485.291 453.256 485.232 453.746C485.174 454.237 484.936 454.689 484.565 455.014C484.193 455.34 483.714 455.517 483.22 455.51L483.26 455.53Z" fill="black"/>
<path id="Vector_11" d="M490.14 473.14C487.437 473.102 484.775 472.474 482.34 471.3C481.868 471.057 481.512 470.637 481.349 470.132C481.187 469.626 481.232 469.077 481.475 468.605C481.718 468.133 482.138 467.777 482.643 467.614C483.149 467.452 483.698 467.497 484.17 467.74C484.23 467.74 488.84 470.08 493 468.74C494.135 468.328 495.174 467.689 496.055 466.862C496.935 466.035 497.638 465.037 498.12 463.93C498.228 463.68 498.386 463.455 498.584 463.269C498.782 463.082 499.016 462.938 499.272 462.845C499.528 462.752 499.8 462.712 500.071 462.727C500.343 462.743 500.609 462.814 500.852 462.936C501.095 463.058 501.311 463.229 501.486 463.437C501.662 463.645 501.792 463.887 501.871 464.148C501.949 464.408 501.974 464.682 501.943 464.952C501.911 465.223 501.826 465.484 501.69 465.72C500.98 467.31 499.95 468.736 498.665 469.911C497.38 471.086 495.867 471.984 494.22 472.55C492.9 472.96 491.523 473.159 490.14 473.14V473.14Z" fill="black"/>
<path id="Vector_12" d="M579.522 515.138L507.149 521.813L510.221 555.122L582.594 548.446L579.522 515.138Z" fill="#C7B8F8"/>
<path id="Vector_13" d="M477.33 374.78C483.69 374.28 489.76 379.51 493.33 384.16C499.33 392 501.86 401.56 506.48 410.16C515.65 427.16 537.98 429.29 554.25 422.21L615.55 399.34C614.03 394.45 606.17 366.8 578.06 353.42C565.053 347.337 550.546 345.208 536.34 347.3L484.75 350C478.745 350.27 472.902 352.033 467.75 355.13C458.42 360.88 448.22 373.13 451.83 399C452.653 392.64 455.641 386.757 460.293 382.342C464.945 377.927 470.975 375.25 477.37 374.76L477.33 374.78Z" fill="black"/>
<path id="Vector_14" d="M456.21 546.26C456.21 546.26 433.01 549.51 417.77 596.08C414 607.6 410 619 405.38 630.24L374.11 701.18L396.88 799.07L447.93 765.87L430.88 721.78C421.3 698.78 418.48 672.86 425.71 649.04L456.21 546.26Z" fill="white"/>
<path id="Vector_15" d="M656.22 735.48L443.75 760.37C434.22 736.74 432.39 734.57 422.87 710.96C415.081 691.664 414.069 670.296 420 650.35L449.73 550.7C450.383 548.487 451.715 546.535 453.539 545.121C455.362 543.707 457.584 542.902 459.89 542.82L647.33 535.69C651.9 617.74 651.7 653.43 656.22 735.48Z" fill="#C7B8F8"/>
<g id="Group">
<path id="Vector_16" d="M577.29 819C576.542 796.286 580.949 773.697 590.18 752.93C599.345 732.057 613.031 713.479 630.25 698.54C639.25 690.81 649.57 683.09 661.43 680.74C666.687 679.672 672.14 680.108 677.16 682C679.218 682.845 681.185 683.897 683.03 685.14C684.888 686.414 686.614 687.871 688.18 689.49C695.09 696.49 699.72 705.89 703.02 715.09C707.42 727.41 710.32 740.4 712.66 753.25C717.625 780.522 718.886 808.34 716.41 835.95C716.103 839.41 715.737 842.863 715.31 846.31C715.11 847.92 716.83 849.31 718.31 849.31C719.1 849.292 719.853 848.97 720.412 848.412C720.97 847.853 721.292 847.1 721.31 846.31C724.797 817.63 724.313 788.607 719.87 760.06C717.774 746.219 714.696 732.544 710.66 719.14C707.49 708.72 703.11 698.45 696.39 689.81C689.82 681.34 680.71 675.19 669.84 674.25C656.65 673.12 644.19 680.18 634.02 687.83C615.018 702.22 599.537 720.744 588.75 742C577.852 763.211 571.864 786.601 571.23 810.44C571.16 813.29 571.23 816.13 571.29 818.98C571.42 822.83 577.42 822.85 577.29 818.98V819Z" fill="white"/>
<path id="Vector_17" d="M467.39 768.15C464.599 751.91 464.66 735.309 467.57 719.09C470.22 704.32 474.99 689.66 482.85 676.81C486.382 670.947 490.71 665.603 495.71 660.93C498.13 658.706 500.74 656.699 503.51 654.93C506.095 653.256 508.834 651.833 511.69 650.68C517.357 648.464 523.407 647.397 529.49 647.54C535.25 647.609 540.931 648.894 546.16 651.31C551.59 653.833 556.17 657.881 559.34 662.96C563.05 669.01 564.52 676.42 562.34 683.08C561.378 685.989 559.74 688.627 557.56 690.78C555.44 692.86 552.49 694.78 549.37 695.05C548.069 695.144 546.765 694.931 545.561 694.429C544.358 693.927 543.289 693.15 542.44 692.16C540.438 689.989 538.972 687.379 538.16 684.54C533.68 669.79 540.05 653.67 547.64 641.13C555.079 629.049 564.639 618.411 575.86 609.73C587.569 600.664 600.623 593.484 614.55 588.45C629.952 582.901 645.991 579.316 662.29 577.78C666.29 577.38 670.29 577.08 674.29 576.88C675.079 576.86 675.831 576.537 676.389 575.979C676.947 575.421 677.27 574.669 677.29 573.88C677.29 573.084 676.974 572.321 676.411 571.759C675.849 571.196 675.086 570.88 674.29 570.88C656.782 571.639 639.43 574.509 622.61 579.43C606.857 584.059 591.933 591.146 578.39 600.43C565.682 609.183 554.653 620.151 545.83 632.81C536.68 646.15 529.1 662.75 531.03 679.31C531.89 686.72 534.58 694.48 541.03 698.81C547.93 703.41 556.61 700.23 561.98 694.81C564.664 692.021 566.698 688.674 567.938 685.007C569.177 681.34 569.591 677.445 569.15 673.6C568.204 665.712 564.545 658.397 558.8 652.91C549.14 643.62 534.98 640.32 521.93 642.02C507.43 643.91 494.86 651.91 485.49 662.96C475.49 674.79 468.99 689.26 464.82 704.1C460.022 721.193 458.328 739.009 459.82 756.7C460.19 761.09 460.82 765.48 461.52 769.83C461.732 770.596 462.24 771.247 462.932 771.639C463.624 772.031 464.444 772.132 465.21 771.92C465.969 771.696 466.612 771.187 467.004 770.498C467.396 769.81 467.505 768.997 467.31 768.23L467.39 768.15Z" fill="white"/>
</g>
<path id="Vector_18" d="M766.83 726.24H766.94L751.73 690.84L719.73 616.29C715.123 605.57 710.517 594.843 705.91 584.11C699.63 569.5 694.51 553.69 681.27 543.73C664.27 530.96 638.57 528.33 621.05 541.52C606.14 552.74 602.05 573.12 602.32 590.86C602.68 610.97 609.32 630.53 618.06 648.43C627.06 666.87 634.46 686.07 642.73 704.86L656.23 735.52L453.74 759.2C447.022 759.98 440.465 761.791 434.3 764.57C425.8 768.417 417.153 772.55 408.36 776.97C403.207 779.557 398.173 782.163 393.26 784.79L405.97 835.79H694.81C751.6 835.79 789.12 777.55 766.83 726.24Z" fill="white"/>
<path id="Vector_19" d="M852.54 682.6H784.54C781.326 682.597 778.245 681.32 775.973 679.047C773.7 676.775 772.423 673.694 772.42 670.48V602.42C772.423 599.206 773.7 596.125 775.973 593.853C778.245 591.58 781.326 590.303 784.54 590.3H852.54C855.754 590.303 858.835 591.58 861.107 593.853C863.38 596.125 864.657 599.206 864.66 602.42V670.48C864.657 673.694 863.38 676.775 861.107 679.047C858.835 681.32 855.754 682.597 852.54 682.6V682.6ZM784.54 594.3C782.387 594.303 780.323 595.159 778.801 596.681C777.279 598.203 776.423 600.267 776.42 602.42V670.48C776.423 672.633 777.279 674.697 778.801 676.219C780.323 677.741 782.387 678.597 784.54 678.6H852.54C854.693 678.597 856.757 677.741 858.279 676.219C859.801 674.697 860.657 672.633 860.66 670.48V602.42C860.657 600.267 859.801 598.203 858.279 596.681C856.757 595.159 854.693 594.303 852.54 594.3H784.54Z" fill="black"/>
<path id="Vector_20" d="M803.35 629C801.285 629 799.267 628.388 797.55 627.241C795.833 626.093 794.495 624.463 793.705 622.555C792.915 620.648 792.708 618.548 793.111 616.523C793.513 614.498 794.508 612.638 795.968 611.178C797.428 609.718 799.288 608.723 801.313 608.321C803.338 607.918 805.438 608.124 807.345 608.915C809.253 609.705 810.883 611.043 812.03 612.76C813.178 614.477 813.79 616.495 813.79 618.56C813.787 621.328 812.687 623.982 810.729 625.939C808.772 627.897 806.118 628.997 803.35 629V629ZM803.35 612.12C802.076 612.12 800.831 612.498 799.772 613.205C798.713 613.913 797.888 614.919 797.4 616.096C796.913 617.272 796.785 618.567 797.034 619.816C797.282 621.066 797.896 622.213 798.796 623.114C799.697 624.014 800.844 624.628 802.094 624.876C803.343 625.125 804.638 624.997 805.814 624.51C806.991 624.022 807.997 623.197 808.705 622.138C809.412 621.079 809.79 619.834 809.79 618.56C809.779 616.858 809.097 615.229 807.89 614.028C806.684 612.828 805.052 612.153 803.35 612.15V612.12Z" fill="black"/>
<path id="Vector_21" d="M833.68 661.39C831.613 661.39 829.593 660.776 827.875 659.627C826.157 658.478 824.819 656.844 824.03 654.934C823.241 653.023 823.037 650.921 823.444 648.895C823.851 646.868 824.851 645.008 826.316 643.55C827.781 642.092 829.646 641.102 831.674 640.705C833.703 640.307 835.803 640.521 837.71 641.319C839.617 642.117 841.244 643.463 842.385 645.186C843.526 646.91 844.13 648.933 844.12 651C844.104 653.759 842.998 656.401 841.042 658.347C839.086 660.294 836.439 661.387 833.68 661.39V661.39ZM833.68 644.51C832.406 644.51 831.161 644.888 830.102 645.595C829.043 646.303 828.218 647.309 827.73 648.486C827.243 649.662 827.115 650.957 827.364 652.206C827.612 653.456 828.226 654.603 829.126 655.504C830.027 656.404 831.174 657.018 832.424 657.266C833.673 657.515 834.968 657.387 836.144 656.9C837.321 656.412 838.327 655.587 839.035 654.528C839.742 653.469 840.12 652.224 840.12 650.95C840.117 649.243 839.438 647.606 838.231 646.399C837.024 645.192 835.387 644.513 833.68 644.51Z" fill="black"/>
<path id="Vector_22" d="M798.57 667.59C798.216 667.586 797.871 667.486 797.57 667.3C797.117 667.026 796.791 666.584 796.664 666.07C796.537 665.557 796.618 665.014 796.89 664.56L832 606.27C832.136 606.045 832.315 605.849 832.527 605.692C832.738 605.536 832.979 605.424 833.234 605.36C833.49 605.297 833.755 605.285 834.015 605.324C834.275 605.364 834.525 605.454 834.75 605.59C834.975 605.726 835.171 605.905 835.327 606.117C835.484 606.328 835.596 606.569 835.66 606.824C835.723 607.08 835.735 607.345 835.696 607.605C835.656 607.865 835.566 608.115 835.43 608.34L800.32 666.62C800.139 666.921 799.882 667.169 799.575 667.34C799.268 667.51 798.921 667.596 798.57 667.59Z" fill="black"/>
<path id="Vector_23" d="M961 539.42H744.91C740.136 539.42 735.558 537.524 732.182 534.148C728.806 530.772 726.91 526.194 726.91 521.42V352.62C726.91 347.846 728.806 343.268 732.182 339.892C735.558 336.516 740.136 334.62 744.91 334.62H961C965.774 334.62 970.352 336.516 973.728 339.892C977.104 343.268 979 347.846 979 352.62V521.44C978.995 526.21 977.096 530.784 973.721 534.155C970.346 537.526 965.77 539.42 961 539.42V539.42ZM744.91 338.64C741.197 338.64 737.636 340.115 735.01 342.741C732.385 345.366 730.91 348.927 730.91 352.64V521.44C730.91 525.153 732.385 528.714 735.01 531.339C737.636 533.965 741.197 535.44 744.91 535.44H961C964.713 535.44 968.274 533.965 970.899 531.339C973.525 528.714 975 525.153 975 521.44V352.62C975 348.907 973.525 345.346 970.899 342.721C968.274 340.095 964.713 338.62 961 338.62L744.91 338.64Z" fill="black"/>
<path id="Vector_24" d="M842.8 374.17H765.6C760.607 374.17 756.56 378.217 756.56 383.21V500.98C756.56 505.973 760.607 510.02 765.6 510.02H842.8C847.793 510.02 851.84 505.973 851.84 500.98V383.21C851.84 378.217 847.793 374.17 842.8 374.17Z" fill="#6DC8C2"/>
<path id="Vector_25" d="M906.09 378.37H885.98C883.208 378.37 880.96 380.618 880.96 383.39V403.5C880.96 406.272 883.208 408.52 885.98 408.52H906.09C908.862 408.52 911.11 406.272 911.11 403.5V383.39C911.11 380.618 908.862 378.37 906.09 378.37Z" fill="#FFC1EB"/>
<path id="Vector_26" d="M950.22 378.37H930.11C927.338 378.37 925.09 380.618 925.09 383.39V403.5C925.09 406.272 927.338 408.52 930.11 408.52H950.22C952.992 408.52 955.24 406.272 955.24 403.5V383.39C955.24 380.618 952.992 378.37 950.22 378.37Z" fill="#FFC1EB"/>
<path id="Vector_27" d="M955.23 433.36H882.88C882.35 433.36 881.841 433.149 881.466 432.774C881.091 432.399 880.88 431.89 880.88 431.36C880.88 430.83 881.091 430.321 881.466 429.946C881.841 429.571 882.35 429.36 882.88 429.36H955.23C955.76 429.36 956.269 429.571 956.644 429.946C957.019 430.321 957.23 430.83 957.23 431.36C957.23 431.89 957.019 432.399 956.644 432.774C956.269 433.149 955.76 433.36 955.23 433.36Z" fill="black"/>
<path id="Vector_28" d="M955.23 453.71H882.88C882.35 453.71 881.841 453.499 881.466 453.124C881.091 452.749 880.88 452.24 880.88 451.71C880.88 451.18 881.091 450.671 881.466 450.296C881.841 449.921 882.35 449.71 882.88 449.71H955.23C955.76 449.71 956.269 449.921 956.644 450.296C957.019 450.671 957.23 451.18 957.23 451.71C957.23 452.24 957.019 452.749 956.644 453.124C956.269 453.499 955.76 453.71 955.23 453.71Z" fill="black"/>
<path id="Vector_29" d="M933.59 475.45H882.88C882.35 475.45 881.841 475.239 881.466 474.864C881.091 474.489 880.88 473.98 880.88 473.45C880.88 472.92 881.091 472.411 881.466 472.036C881.841 471.661 882.35 471.45 882.88 471.45H933.59C934.12 471.45 934.629 471.661 935.004 472.036C935.379 472.411 935.59 472.92 935.59 473.45C935.59 473.98 935.379 474.489 935.004 474.864C934.629 475.239 934.12 475.45 933.59 475.45Z" fill="black"/>
<path id="Vector_30" d="M815.77 413.66V418.66C815.769 421.166 814.796 423.574 813.056 425.378C811.316 427.181 808.944 428.239 806.44 428.33C805.85 428.33 805.28 428.33 804.71 428.33C802.138 428.249 799.698 427.169 797.909 425.319C796.121 423.468 795.124 420.994 795.13 418.42V413.67C795.13 412.153 794.527 410.698 793.455 409.625C792.382 408.553 790.927 407.95 789.41 407.95V407.95C787.893 407.95 786.438 408.553 785.365 409.625C784.293 410.698 783.69 412.153 783.69 413.67V465.6C783.69 466.559 783.879 467.508 784.246 468.394C784.613 469.279 785.15 470.084 785.828 470.762C786.506 471.44 787.311 471.977 788.196 472.344C789.082 472.711 790.031 472.9 790.99 472.9H819.91C820.869 472.9 821.818 472.711 822.704 472.344C823.589 471.977 824.394 471.44 825.072 470.762C825.75 470.084 826.287 469.279 826.654 468.394C827.021 467.508 827.21 466.559 827.21 465.6V413.66C827.21 412.143 826.607 410.688 825.535 409.615C824.462 408.543 823.007 407.94 821.49 407.94V407.94C819.973 407.94 818.518 408.543 817.445 409.615C816.373 410.688 815.77 412.143 815.77 413.66Z" fill="white"/>
<path id="Vector_31" d="M696 716.53C696 711.7 678.88 707.78 657.75 707.78C636.62 707.78 619.5 711.7 619.5 716.53L615.39 759.69C624.97 758.13 638.39 758.03 650.23 765.39C654.451 768.093 659.111 770.039 664 771.14C672.23 772.87 684.62 773.28 699.53 766.96L696 716.53Z" fill="white"/>
<path id="Vector_32" d="M674.79 774.24C671.024 774.244 667.268 773.862 663.58 773.1C658.47 771.945 653.598 769.915 649.18 767.1C637.68 759.98 624.63 760.22 615.71 761.67L613.15 762.09L617.51 716.43C617.73 708.02 643.89 705.79 657.75 705.79C671.61 705.79 697.83 708 698 716.45L701.62 768.25L700.3 768.8C692.252 772.318 683.574 774.169 674.79 774.24ZM625.59 756.84C634.628 756.679 643.531 759.052 651.29 763.69C655.308 766.267 659.745 768.125 664.4 769.18C671.72 770.72 683.31 771.32 697.4 765.66L694 716.53C694 714.91 683.1 709.78 657.75 709.78C632.4 709.78 621.5 714.91 621.5 716.53V716.72L617.62 757.35C620.263 757.014 622.925 756.844 625.59 756.84V756.84Z" fill="black"/>
<path id="Vector_33" d="M702.17 763.42C686.3 769.74 673.1 769.33 664.34 767.6C659.177 766.501 654.231 764.559 649.7 761.85C637.03 754.48 622.8 754.59 612.6 756.14L608.43 797.21C607.897 802.441 608.467 807.726 610.104 812.722C611.741 817.719 614.408 822.317 617.933 826.218C621.458 830.12 625.762 833.239 630.567 835.373C635.372 837.508 640.572 838.61 645.83 838.61H667.26C672.432 838.61 677.549 837.544 682.29 835.477C687.031 833.409 691.295 830.386 694.814 826.597C698.334 822.807 701.034 818.331 702.745 813.45C704.456 808.569 705.142 803.388 704.76 798.23L702.17 763.42Z" fill="#FFBB45"/>
<path id="Vector_34" d="M654.71 812.66H654.53C654.002 812.612 653.515 812.356 653.176 811.949C652.837 811.542 652.673 811.018 652.72 810.49L665.17 672.69C665.348 670.596 666.309 668.647 667.86 667.229C669.411 665.811 671.439 665.03 673.54 665.04H703.16C703.69 665.04 704.199 665.251 704.574 665.626C704.949 666.001 705.16 666.509 705.16 667.04C705.16 667.57 704.949 668.079 704.574 668.454C704.199 668.829 703.69 669.04 703.16 669.04H673.54C672.441 669.038 671.381 669.447 670.568 670.188C669.756 670.928 669.25 671.945 669.15 673.04L656.7 810.84C656.655 811.337 656.426 811.799 656.058 812.136C655.69 812.473 655.209 812.659 654.71 812.66Z" fill="black"/>
<path id="Vector_35" d="M657.67 727C656.52 727 655.37 727 654.23 726.94C641.919 726.475 629.826 723.555 618.66 718.35C618.422 718.239 618.207 718.082 618.03 717.889C617.852 717.695 617.714 717.468 617.624 717.221C617.534 716.974 617.493 716.712 617.505 716.449C617.516 716.186 617.579 715.928 617.69 715.69C617.801 715.452 617.958 715.238 618.152 715.06C618.345 714.882 618.572 714.744 618.819 714.654C619.066 714.564 619.328 714.524 619.591 714.535C619.854 714.546 620.112 714.609 620.35 714.72C631.022 719.699 642.582 722.494 654.35 722.94C668.401 723.445 682.372 720.629 695.13 714.72C695.369 714.608 695.627 714.544 695.891 714.532C696.154 714.52 696.417 714.56 696.665 714.65C696.913 714.74 697.141 714.878 697.335 715.057C697.529 715.235 697.686 715.45 697.797 715.69C697.908 715.929 697.97 716.188 697.98 716.451C697.991 716.715 697.949 716.978 697.857 717.225C697.765 717.472 697.626 717.699 697.446 717.892C697.266 718.085 697.05 718.241 696.81 718.35C684.54 724.023 671.188 726.974 657.67 727V727Z" fill="black"/>
<path id="Vector_36" d="M531.25 543.55C530.74 543.551 530.248 543.357 529.877 543.007C529.505 542.658 529.281 542.179 529.25 541.67L528.07 521.33C528.04 520.8 528.221 520.279 528.574 519.882C528.928 519.485 529.425 519.245 529.955 519.215C530.485 519.184 531.006 519.366 531.403 519.719C531.8 520.073 532.04 520.569 532.07 521.1L533.25 541.43C533.266 541.693 533.23 541.956 533.145 542.205C533.059 542.454 532.925 542.683 532.75 542.88C532.576 543.077 532.364 543.238 532.127 543.353C531.89 543.468 531.633 543.535 531.37 543.55H531.25Z" fill="black"/>
<path id="Vector_37" d="M551.53 542.07C551.02 542.071 550.528 541.877 550.157 541.527C549.785 541.178 549.561 540.699 549.53 540.19L548.35 519.85C548.335 519.587 548.372 519.324 548.458 519.076C548.545 518.827 548.679 518.599 548.854 518.402C549.03 518.206 549.242 518.046 549.478 517.931C549.715 517.817 549.972 517.75 550.235 517.735C550.498 517.72 550.761 517.757 551.009 517.843C551.258 517.93 551.487 518.064 551.683 518.239C551.879 518.414 552.039 518.627 552.154 518.863C552.268 519.1 552.335 519.357 552.35 519.62L553.53 540C553.546 540.263 553.51 540.526 553.425 540.775C553.339 541.024 553.205 541.253 553.03 541.45C552.856 541.647 552.644 541.808 552.407 541.923C552.17 542.038 551.913 542.105 551.65 542.12L551.53 542.07Z" fill="black"/>
<path id="Vector_38" d="M344.39 546.09H132.23C128.517 546.09 124.956 544.615 122.33 541.99C119.705 539.364 118.23 535.803 118.23 532.09V396.67C118.23 392.957 119.705 389.396 122.33 386.771C124.956 384.145 128.517 382.67 132.23 382.67H344.39C348.103 382.67 351.664 384.145 354.289 386.771C356.915 389.396 358.39 392.957 358.39 396.67V532.06C358.394 533.901 358.035 535.725 357.333 537.427C356.631 539.129 355.6 540.676 354.3 541.979C353 543.282 351.455 544.316 349.754 545.021C348.054 545.727 346.231 546.09 344.39 546.09V546.09ZM132.23 386.64C129.578 386.64 127.034 387.694 125.159 389.569C123.284 391.444 122.23 393.988 122.23 396.64V532.06C122.23 534.712 123.284 537.256 125.159 539.131C127.034 541.006 129.578 542.06 132.23 542.06H344.39C347.042 542.06 349.586 541.006 351.461 539.131C353.336 537.256 354.39 534.712 354.39 532.06V396.67C354.39 394.018 353.336 391.474 351.461 389.599C349.586 387.724 347.042 386.67 344.39 386.67L132.23 386.64Z" fill="black"/>
<path id="Vector_39" d="M325.33 485.09H235.47C231.168 485.09 227.68 488.578 227.68 492.88V495.71C227.68 500.012 231.168 503.5 235.47 503.5H325.33C329.632 503.5 333.12 500.012 333.12 495.71V492.88C333.12 488.578 329.632 485.09 325.33 485.09Z" fill="#FFBB45"/>
<path id="Vector_40" d="M328.72 438.5H232.08C231.55 438.5 231.041 438.289 230.666 437.914C230.291 437.539 230.08 437.03 230.08 436.5C230.08 435.97 230.291 435.461 230.666 435.086C231.041 434.711 231.55 434.5 232.08 434.5H328.72C329.25 434.5 329.759 434.711 330.134 435.086C330.509 435.461 330.72 435.97 330.72 436.5C330.72 437.03 330.509 437.539 330.134 437.914C329.759 438.289 329.25 438.5 328.72 438.5Z" fill="black"/>
<path id="Vector_41" d="M315.11 460.37H232.11C231.58 460.37 231.071 460.159 230.696 459.784C230.321 459.409 230.11 458.9 230.11 458.37C230.11 457.84 230.321 457.331 230.696 456.956C231.071 456.581 231.58 456.37 232.11 456.37H315.11C315.64 456.37 316.149 456.581 316.524 456.956C316.899 457.331 317.11 457.84 317.11 458.37C317.11 458.9 316.899 459.409 316.524 459.784C316.149 460.159 315.64 460.37 315.11 460.37Z" fill="black"/>
<path id="Vector_42" d="M163.34 440.66C162.81 440.66 162.301 440.449 161.926 440.074C161.551 439.699 161.34 439.19 161.34 438.66C161.17 431.66 163.78 427.43 166 425.13C168.475 422.534 171.866 421.009 175.45 420.88C178.949 420.939 182.284 422.377 184.73 424.88C187 427.16 189.73 431.4 189.61 438.64C189.61 439.17 189.399 439.679 189.024 440.054C188.649 440.429 188.14 440.64 187.61 440.64C187.08 440.64 186.571 440.429 186.196 440.054C185.821 439.679 185.61 439.17 185.61 438.64C185.68 432.79 183.61 429.49 181.9 427.75C180.197 426.027 177.901 425.019 175.48 424.93C172.97 425.03 170.598 426.106 168.87 427.93C166.45 430.43 165.23 434.11 165.34 438.58C165.34 439.11 165.129 439.619 164.754 439.994C164.379 440.369 163.87 440.58 163.34 440.58V440.66Z" fill="black"/>
<path id="Vector_43" d="M199.91 506H151.27C150.078 506.001 148.9 505.746 147.814 505.254C146.729 504.762 145.761 504.043 144.976 503.146C144.191 502.25 143.606 501.195 143.262 500.054C142.918 498.913 142.822 497.711 142.98 496.53L149.76 445.95C150.031 443.944 151.021 442.105 152.545 440.773C154.07 439.442 156.026 438.709 158.05 438.71H192C193.993 438.708 195.921 439.418 197.436 440.713C198.95 442.007 199.952 443.801 200.26 445.77L208.19 496.35C208.378 497.544 208.305 498.765 207.975 499.929C207.645 501.092 207.066 502.17 206.279 503.087C205.491 504.005 204.514 504.741 203.415 505.244C202.315 505.747 201.119 506.005 199.91 506Z" fill="#FFC1EB"/>
<path id="Vector_44" d="M554.91 838.15H393.26V803.2H554.91C557.143 803.2 559.285 804.087 560.864 805.666C562.443 807.245 563.33 809.387 563.33 811.62V829.72C563.331 830.826 563.115 831.922 562.692 832.945C562.269 833.968 561.649 834.897 560.867 835.68C560.085 836.463 559.157 837.084 558.135 837.508C557.112 837.932 556.017 838.15 554.91 838.15V838.15Z" fill="black"/>
<path id="Vector_45" d="M411.51 838.15H222.05C218.518 838.183 215.071 837.075 212.22 834.99C209.369 832.905 207.268 829.956 206.23 826.58L159.84 669.3C156.84 659.11 164.73 648.96 175.66 648.96H354.34C358.027 648.917 361.62 650.123 364.534 652.382C367.448 654.641 369.512 657.819 370.39 661.4L411.51 838.15Z" fill="black"/>
<path id="Vector_46" d="M273.91 784.72C288.408 784.72 300.16 772.967 300.16 758.47C300.16 743.972 288.408 732.22 273.91 732.22C259.413 732.22 247.66 743.972 247.66 758.47C247.66 772.967 259.413 784.72 273.91 784.72Z" fill="#FFC1EB"/>
<path id="Vector_47" d="M268.14 739.81C267.692 739.809 267.257 739.658 266.905 739.38C266.554 739.103 266.305 738.716 266.2 738.28L263.06 725.42C262.998 725.165 262.986 724.899 263.026 724.64C263.066 724.38 263.157 724.13 263.294 723.906C263.569 723.452 264.014 723.126 264.53 723C265.046 722.874 265.591 722.958 266.044 723.234C266.498 723.51 266.824 723.954 266.95 724.47L270.09 737.33C270.153 737.585 270.164 737.851 270.124 738.111C270.084 738.371 269.993 738.62 269.857 738.845C269.72 739.07 269.541 739.265 269.329 739.421C269.116 739.576 268.876 739.688 268.62 739.75C268.463 739.789 268.302 739.81 268.14 739.81V739.81Z" fill="#6DC8C2"/>
<path id="Vector_48" d="M919.06 837.79H126.32C125.79 837.79 125.281 837.579 124.906 837.204C124.531 836.829 124.32 836.32 124.32 835.79C124.32 835.26 124.531 834.751 124.906 834.376C125.281 834.001 125.79 833.79 126.32 833.79H919.06C919.59 833.79 920.099 834.001 920.474 834.376C920.849 834.751 921.06 835.26 921.06 835.79C921.06 836.32 920.849 836.829 920.474 837.204C920.099 837.579 919.59 837.79 919.06 837.79Z" fill="black"/>
<path id="Vector_49" d="M516.7 300.62C509.963 300.63 503.375 298.641 497.769 294.906C492.163 291.17 487.791 285.856 485.206 279.635C482.621 273.414 481.94 266.566 483.248 259.958C484.556 253.35 487.795 247.278 492.555 242.511C497.315 237.744 503.382 234.496 509.989 233.178C516.595 231.86 523.444 232.531 529.669 235.107C535.894 237.683 541.214 242.047 544.958 247.648C548.702 253.248 550.7 259.833 550.7 266.57C550.687 275.588 547.102 284.233 540.73 290.615C534.358 296.996 525.718 300.594 516.7 300.62ZM516.7 236.52C510.767 236.52 504.966 238.279 500.033 241.576C495.099 244.872 491.254 249.558 488.984 255.039C486.713 260.521 486.119 266.553 487.276 272.373C488.434 278.192 491.291 283.538 495.487 287.733C499.682 291.929 505.028 294.786 510.847 295.944C516.667 297.101 522.699 296.507 528.18 294.236C533.662 291.966 538.348 288.121 541.644 283.187C544.941 278.254 546.7 272.453 546.7 266.52C546.679 258.57 543.511 250.952 537.89 245.33C532.268 239.709 524.65 236.541 516.7 236.52V236.52Z" fill="white"/>
<path id="Vector_50" d="M518.11 148.05H515.3C511.014 148.05 507.54 151.524 507.54 155.81V219.95C507.54 224.236 511.014 227.71 515.3 227.71H518.11C522.396 227.71 525.87 224.236 525.87 219.95V155.81C525.87 151.524 522.396 148.05 518.11 148.05Z" fill="black"/>
<path id="Vector_51" d="M515.24 205.49C494.07 205.81 473.377 211.83 455.34 222.916C437.302 234.003 422.586 249.746 412.74 268.49C412.402 269.129 412.235 269.845 412.255 270.567C412.275 271.29 412.482 271.995 412.856 272.614C413.229 273.233 413.756 273.745 414.386 274.1C415.016 274.455 415.727 274.641 416.45 274.64H617C617.722 274.639 618.432 274.452 619.06 274.097C619.689 273.741 620.215 273.229 620.587 272.61C620.959 271.991 621.165 271.287 621.185 270.565C621.205 269.843 621.038 269.128 620.7 268.49C610.618 249.304 595.438 233.272 576.831 222.156C558.225 211.041 536.913 205.274 515.24 205.49V205.49Z" fill="#FFC1EB"/>
<path id="Vector_52" d="M455.1 255.45C441.94 255.45 431.21 246.56 431.05 246.45C430.644 246.108 430.391 245.619 430.346 245.09C430.301 244.561 430.468 244.036 430.81 243.63C431.152 243.224 431.641 242.971 432.17 242.926C432.699 242.881 433.224 243.048 433.63 243.39V243.39C434.51 244.13 455.31 261.27 473.07 243.51L474.28 242.3L475.67 243.3C476.67 244.02 500.09 260.78 517.38 243.5L518.55 242.32L519.93 243.26C523.866 245.785 528.176 247.675 532.7 248.86C542.05 251.22 549.79 249.42 555.7 243.5L556.94 242.26L558.33 243.32C559.26 244.03 581.4 260.58 598.49 243.5C598.87 243.155 599.368 242.968 599.881 242.98C600.395 242.992 600.884 243.201 601.247 243.563C601.611 243.925 601.821 244.414 601.835 244.927C601.848 245.44 601.664 245.939 601.32 246.32C584.38 263.26 562.95 251.17 557.32 247.47C550.54 253.47 541.69 255.29 531.6 252.71C527.191 251.543 522.967 249.765 519.05 247.43C502.05 262.9 480.4 251.04 474.72 247.43C468.21 253.42 461.38 255.45 455.1 255.45Z" fill="#FB6D6D"/>
<path id="Vector_53" d="M398.4 785.62C397.97 785.609 397.554 785.459 397.216 785.193C396.878 784.926 396.634 784.558 396.522 784.143C396.409 783.727 396.434 783.286 396.592 782.886C396.751 782.485 397.034 782.147 397.4 781.92C403.9 777.92 410.64 774.2 417.4 770.75C426.4 766.2 435.67 762.04 445.05 758.39C445.545 758.198 446.095 758.21 446.581 758.424C447.067 758.637 447.448 759.035 447.64 759.53C447.832 760.025 447.82 760.575 447.606 761.061C447.393 761.547 446.995 761.928 446.5 762.12C437.24 765.72 428.06 769.82 419.21 774.32C412.52 777.72 405.88 781.43 399.45 785.32C399.136 785.518 398.772 785.623 398.4 785.62Z" fill="black"/>
<path id="Vector_54" d="M140.29 728.06L151.88 684.18H86.13L96.57 728.54C84.7124 733.714 75.0083 742.828 69.1021 754.338C63.1959 765.848 61.451 779.047 64.163 791.696C66.8751 804.346 73.8772 815.669 83.9829 823.747C94.0886 831.824 106.676 836.159 119.613 836.017C132.549 835.875 145.038 831.265 154.964 822.967C164.89 814.67 171.642 803.196 174.076 790.49C176.509 777.784 174.475 764.627 168.318 753.249C162.16 741.871 152.258 732.972 140.29 728.06V728.06Z" fill="white"/>
<path id="Vector_55" d="M119 838C105.808 837.989 93.0133 833.488 82.7205 825.237C72.4277 816.986 65.2504 805.477 62.3696 792.603C59.4889 779.73 61.0763 766.26 66.8706 754.409C72.665 742.558 82.3211 733.032 94.25 727.4L83.6 682.18H154.47L142.67 726.9C154.807 732.327 164.714 741.754 170.737 753.607C176.761 765.459 178.535 779.019 175.765 792.022C172.995 805.026 165.847 816.685 155.516 825.053C145.184 833.421 132.295 837.991 119 838V838ZM88.65 686.18L98.9 729.71L97.37 730.37C85.932 735.358 76.5706 744.148 70.8724 755.25C65.1741 766.351 63.4895 779.081 66.104 791.283C68.7186 803.484 75.4714 814.407 85.2181 822.198C94.9648 829.99 107.106 834.173 119.584 834.036C132.061 833.9 144.108 829.454 153.683 821.451C163.257 813.449 169.77 802.382 172.118 790.126C174.465 777.87 172.503 765.18 166.564 754.206C160.625 743.231 151.074 734.648 139.53 729.91L137.91 729.24L149.28 686.18H88.65Z" fill="black"/>
<path id="Vector_56" d="M118.98 689.63C138.63 689.63 154.56 686.254 154.56 682.09C154.56 677.926 138.63 674.55 118.98 674.55C99.3297 674.55 83.4 677.926 83.4 682.09C83.4 686.254 99.3297 689.63 118.98 689.63Z" fill="black"/>
<path id="Vector_57" d="M109.3 688.16C108.892 688.159 108.494 688.032 108.16 687.798C107.825 687.564 107.571 687.233 107.43 686.85C95.29 653.75 70.2 626.85 69.95 626.62C69.7694 626.429 69.6283 626.204 69.5346 625.959C69.4409 625.713 69.3964 625.451 69.4039 625.188C69.4113 624.926 69.4704 624.667 69.5778 624.427C69.6853 624.187 69.8389 623.971 70.03 623.79C70.2211 623.609 70.4458 623.468 70.6915 623.375C70.9371 623.281 71.1988 623.237 71.4616 623.244C71.7244 623.251 71.9831 623.31 72.223 623.418C72.463 623.525 72.6794 623.679 72.86 623.87C73.12 624.15 98.76 651.59 111.18 685.47C111.352 685.962 111.325 686.502 111.104 686.975C110.884 687.448 110.488 687.815 110 688C109.778 688.093 109.541 688.147 109.3 688.16V688.16Z" fill="black"/>
<path id="Vector_58" d="M125.32 688.43C124.79 688.43 124.281 688.219 123.906 687.844C123.531 687.469 123.32 686.96 123.32 686.43V657.79C123.32 657.26 123.531 656.751 123.906 656.376C124.281 656.001 124.79 655.79 125.32 655.79C125.85 655.79 126.359 656.001 126.734 656.376C127.109 656.751 127.32 657.26 127.32 657.79V686.43C127.32 686.96 127.109 687.469 126.734 687.844C126.359 688.219 125.85 688.43 125.32 688.43Z" fill="black"/>
<path id="Vector_59" d="M81.53 606.6H73C72.84 606.16 72.66 605.73 72.47 605.31L78.68 599.81C79.3375 599.244 79.876 598.553 80.2642 597.777C80.6524 597.001 80.8826 596.156 80.9414 595.29C81.0002 594.424 80.8864 593.556 80.6067 592.734C80.327 591.913 79.8869 591.156 79.3119 590.506C78.737 589.856 78.0387 589.327 77.2576 588.949C76.4764 588.572 75.6281 588.353 74.7617 588.306C73.8954 588.259 73.0283 588.384 72.2109 588.675C71.3934 588.966 70.6419 589.416 70 590L63.46 595.79C63.36 595.88 63.28 595.99 63.18 596.09C62.77 595.9 62.35 595.73 61.92 595.57V587.64C61.8538 585.946 61.1342 584.343 59.9122 583.168C58.6901 581.993 57.0605 581.336 55.365 581.336C53.6695 581.336 52.0399 581.993 50.8178 583.168C49.5958 584.343 48.8762 585.946 48.81 587.64V595.57C48.2039 595.792 47.6098 596.046 47.03 596.33C46.8459 596.102 46.6453 595.888 46.43 595.69L39.84 590C38.5136 588.943 36.8295 588.441 35.1408 588.599C33.4521 588.757 31.8903 589.562 30.7829 590.847C29.6755 592.132 29.1087 593.795 29.2014 595.489C29.2941 597.182 30.039 598.774 31.28 599.93L37.9 605.64C37.9523 605.686 38.0093 605.726 38.07 605.76C37.95 606.04 37.85 606.33 37.74 606.62H29.52C27.7915 606.628 26.1362 607.319 24.9149 608.542C23.6936 609.765 23.0053 611.422 23 613.15V613.15C23 614.888 23.6898 616.555 24.9178 617.785C26.1459 619.015 27.8119 619.707 29.55 619.71H37.69L37.89 620.25H37.83L31.28 626.04C30.0428 627.21 29.3088 628.814 29.233 630.515C29.1571 632.216 29.7455 633.88 30.8738 635.154C32.002 636.429 33.5818 637.216 35.2792 637.347C36.9766 637.479 38.6586 636.946 39.97 635.86L46.51 630.07L46.65 629.92C47.3651 630.306 48.107 630.64 48.87 630.92V638.78C48.9362 640.474 49.6558 642.077 50.8778 643.252C52.0999 644.427 53.7295 645.084 55.425 645.084C57.1205 645.084 58.7501 644.427 59.9722 643.252C61.1942 642.077 61.9138 640.474 61.98 638.78V631C62.43 630.83 62.88 630.65 63.32 630.44L69.74 635.97C71.0621 637.101 72.7794 637.661 74.5141 637.526C76.2488 637.391 77.8588 636.572 78.99 635.25C80.1211 633.928 80.6808 632.211 80.5457 630.476C80.4107 628.741 79.5921 627.131 78.27 626L72.57 621.08C72.77 620.63 72.95 620.17 73.12 619.71H81.53C83.2698 619.71 84.9384 619.019 86.1686 617.789C87.3989 616.558 88.09 614.89 88.09 613.15V613.15C88.0873 611.412 87.395 609.746 86.1651 608.518C84.9351 607.29 83.2681 606.6 81.53 606.6V606.6Z" fill="#C7B8F8"/>
<path id="Vector_60" d="M81.53 606.6H73C72.84 606.16 72.66 605.73 72.47 605.31L78.68 599.81C79.3375 599.244 79.876 598.553 80.2642 597.777C80.6524 597.001 80.8826 596.156 80.9414 595.29C81.0002 594.424 80.8864 593.556 80.6067 592.734C80.327 591.913 79.8869 591.156 79.3119 590.506C78.737 589.856 78.0387 589.327 77.2576 588.949C76.4764 588.572 75.6281 588.353 74.7617 588.306C73.8954 588.259 73.0283 588.384 72.2109 588.675C71.3934 588.966 70.6419 589.416 70 590L63.46 595.79C63.36 595.88 63.28 595.99 63.18 596.09C62.77 595.9 62.35 595.73 61.92 595.57V587.64C61.8538 585.946 61.1342 584.343 59.9122 583.168C58.6901 581.993 57.0605 581.336 55.365 581.336C53.6695 581.336 52.0399 581.993 50.8178 583.168C49.5958 584.343 48.8762 585.946 48.81 587.64V595.57C48.2039 595.792 47.6098 596.046 47.03 596.33C46.8459 596.102 46.6453 595.888 46.43 595.69L39.84 590C38.5136 588.943 36.8295 588.441 35.1408 588.599C33.4521 588.757 31.8903 589.562 30.7829 590.847C29.6755 592.132 29.1087 593.795 29.2014 595.489C29.2941 597.182 30.039 598.774 31.28 599.93L37.9 605.64C37.9523 605.686 38.0093 605.726 38.07 605.76C37.95 606.04 37.85 606.33 37.74 606.62H29.52C27.7915 606.628 26.1362 607.319 24.9149 608.542C23.6936 609.765 23.0053 611.422 23 613.15V613.15C23 614.888 23.6898 616.555 24.9178 617.785C26.1459 619.015 27.8119 619.707 29.55 619.71H37.69L37.89 620.25H37.83L31.28 626.04C30.0428 627.21 29.3088 628.814 29.233 630.515C29.1571 632.216 29.7455 633.88 30.8738 635.154C32.002 636.429 33.5818 637.216 35.2792 637.347C36.9766 637.479 38.6586 636.946 39.97 635.86L46.51 630.07L46.65 629.92C47.3651 630.306 48.107 630.64 48.87 630.92V638.78C48.9362 640.474 49.6558 642.077 50.8778 643.252C52.0999 644.427 53.7295 645.084 55.425 645.084C57.1205 645.084 58.7501 644.427 59.9722 643.252C61.1942 642.077 61.9138 640.474 61.98 638.78V631C62.43 630.83 62.88 630.65 63.32 630.44L69.74 635.97C71.0621 637.101 72.7794 637.661 74.5141 637.526C76.2488 637.391 77.8588 636.572 78.99 635.25C80.1211 633.928 80.6808 632.211 80.5457 630.476C80.4107 628.741 79.5921 627.131 78.27 626L72.57 621.08C72.77 620.63 72.95 620.17 73.12 619.71H81.53C83.2698 619.71 84.9384 619.019 86.1686 617.789C87.3989 616.558 88.09 614.89 88.09 613.15V613.15C88.0873 611.412 87.395 609.746 86.1651 608.518C84.9351 607.29 83.2681 606.6 81.53 606.6V606.6Z" fill="#C7B8F8"/>
<path id="Vector_61" d="M81.53 606.6H73C72.84 606.16 72.66 605.73 72.47 605.31L78.68 599.81C79.3375 599.244 79.876 598.553 80.2642 597.777C80.6524 597.001 80.8826 596.156 80.9414 595.29C81.0002 594.424 80.8864 593.556 80.6067 592.734C80.327 591.913 79.8869 591.156 79.3119 590.506C78.737 589.856 78.0387 589.327 77.2576 588.949C76.4764 588.572 75.6281 588.353 74.7617 588.306C73.8954 588.259 73.0283 588.384 72.2109 588.675C71.3934 588.966 70.6419 589.416 70 590L63.46 595.79C63.36 595.88 63.28 595.99 63.18 596.09C62.77 595.9 62.35 595.73 61.92 595.57V587.64C61.8538 585.946 61.1342 584.343 59.9122 583.168C58.6901 581.993 57.0605 581.336 55.365 581.336C53.6695 581.336 52.0399 581.993 50.8178 583.168C49.5958 584.343 48.8762 585.946 48.81 587.64V595.57C48.2039 595.792 47.6098 596.046 47.03 596.33C46.8459 596.102 46.6453 595.888 46.43 595.69L39.84 590C38.5136 588.943 36.8295 588.441 35.1408 588.599C33.4521 588.757 31.8903 589.562 30.7829 590.847C29.6755 592.132 29.1087 593.795 29.2014 595.489C29.2941 597.182 30.039 598.774 31.28 599.93L37.9 605.64C37.9523 605.686 38.0093 605.726 38.07 605.76C37.95 606.04 37.85 606.33 37.74 606.62H29.52C27.7915 606.628 26.1362 607.319 24.9149 608.542C23.6936 609.765 23.0053 611.422 23 613.15V613.15C23 614.888 23.6898 616.555 24.9178 617.785C26.1459 619.015 27.8119 619.707 29.55 619.71H37.69L37.89 620.25H37.83L31.28 626.04C30.0428 627.21 29.3088 628.814 29.233 630.515C29.1571 632.216 29.7455 633.88 30.8738 635.154C32.002 636.429 33.5818 637.216 35.2792 637.347C36.9766 637.479 38.6586 636.946 39.97 635.86L46.51 630.07L46.65 629.92C47.3651 630.306 48.107 630.64 48.87 630.92V638.78C48.9362 640.474 49.6558 642.077 50.8778 643.252C52.0999 644.427 53.7295 645.084 55.425 645.084C57.1205 645.084 58.7501 644.427 59.9722 643.252C61.1942 642.077 61.9138 640.474 61.98 638.78V631C62.43 630.83 62.88 630.65 63.32 630.44L69.74 635.97C71.0621 637.101 72.7794 637.661 74.5141 637.526C76.2488 637.391 77.8588 636.572 78.99 635.25C80.1211 633.928 80.6808 632.211 80.5457 630.476C80.4107 628.741 79.5921 627.131 78.27 626L72.57 621.08C72.77 620.63 72.95 620.17 73.12 619.71H81.53C83.2698 619.71 84.9384 619.019 86.1686 617.789C87.3989 616.558 88.09 614.89 88.09 613.15V613.15C88.0873 611.412 87.395 609.746 86.1651 608.518C84.9351 607.29 83.2681 606.6 81.53 606.6V606.6Z" fill="#C7B8F8"/>
<path id="Vector_62" d="M81.53 606.6H73C72.84 606.16 72.66 605.73 72.47 605.31L78.68 599.81C79.3375 599.244 79.876 598.553 80.2642 597.777C80.6524 597.001 80.8826 596.156 80.9414 595.29C81.0002 594.424 80.8864 593.556 80.6067 592.734C80.327 591.913 79.8869 591.156 79.3119 590.506C78.737 589.856 78.0387 589.327 77.2576 588.949C76.4764 588.572 75.6281 588.353 74.7617 588.306C73.8954 588.259 73.0283 588.384 72.2109 588.675C71.3934 588.966 70.6419 589.416 70 590L63.46 595.79C63.36 595.88 63.28 595.99 63.18 596.09C62.77 595.9 62.35 595.73 61.92 595.57V587.64C61.8538 585.946 61.1342 584.343 59.9122 583.168C58.6901 581.993 57.0605 581.336 55.365 581.336C53.6695 581.336 52.0399 581.993 50.8178 583.168C49.5958 584.343 48.8762 585.946 48.81 587.64V595.57C48.2039 595.792 47.6098 596.046 47.03 596.33C46.8459 596.102 46.6453 595.888 46.43 595.69L39.84 590C38.5136 588.943 36.8295 588.441 35.1408 588.599C33.4521 588.757 31.8903 589.562 30.7829 590.847C29.6755 592.132 29.1087 593.795 29.2014 595.489C29.2941 597.182 30.039 598.774 31.28 599.93L37.9 605.64C37.9523 605.686 38.0093 605.726 38.07 605.76C37.95 606.04 37.85 606.33 37.74 606.62H29.52C27.7915 606.628 26.1362 607.319 24.9149 608.542C23.6936 609.765 23.0053 611.422 23 613.15V613.15C23 614.888 23.6898 616.555 24.9178 617.785C26.1459 619.015 27.8119 619.707 29.55 619.71H37.69L37.89 620.25H37.83L31.28 626.04C30.0428 627.21 29.3088 628.814 29.233 630.515C29.1571 632.216 29.7455 633.88 30.8738 635.154C32.002 636.429 33.5818 637.216 35.2792 637.347C36.9766 637.479 38.6586 636.946 39.97 635.86L46.51 630.07L46.65 629.92C47.3651 630.306 48.107 630.64 48.87 630.92V638.78C48.9362 640.474 49.6558 642.077 50.8778 643.252C52.0999 644.427 53.7295 645.084 55.425 645.084C57.1205 645.084 58.7501 644.427 59.9722 643.252C61.1942 642.077 61.9138 640.474 61.98 638.78V631C62.43 630.83 62.88 630.65 63.32 630.44L69.74 635.97C71.0621 637.101 72.7794 637.661 74.5141 637.526C76.2488 637.391 77.8588 636.572 78.99 635.25C80.1211 633.928 80.6808 632.211 80.5457 630.476C80.4107 628.741 79.5921 627.131 78.27 626L72.57 621.08C72.77 620.63 72.95 620.17 73.12 619.71H81.53C83.2698 619.71 84.9384 619.019 86.1686 617.789C87.3989 616.558 88.09 614.89 88.09 613.15V613.15C88.0873 611.412 87.395 609.746 86.1651 608.518C84.9351 607.29 83.2681 606.6 81.53 606.6V606.6Z" fill="#C7B8F8"/>
<path id="Vector_63" d="M81.53 606.6H73C72.84 606.16 72.66 605.73 72.47 605.31L78.68 599.81C79.3375 599.244 79.876 598.553 80.2642 597.777C80.6524 597.001 80.8826 596.156 80.9414 595.29C81.0002 594.424 80.8864 593.556 80.6067 592.734C80.327 591.913 79.8869 591.156 79.3119 590.506C78.737 589.856 78.0387 589.327 77.2576 588.949C76.4764 588.572 75.6281 588.353 74.7617 588.306C73.8954 588.259 73.0283 588.384 72.2109 588.675C71.3934 588.966 70.6419 589.416 70 590L63.46 595.79C63.36 595.88 63.28 595.99 63.18 596.09C62.77 595.9 62.35 595.73 61.92 595.57V587.64C61.8538 585.946 61.1342 584.343 59.9122 583.168C58.6901 581.993 57.0605 581.336 55.365 581.336C53.6695 581.336 52.0399 581.993 50.8178 583.168C49.5958 584.343 48.8762 585.946 48.81 587.64V595.57C48.2039 595.792 47.6098 596.046 47.03 596.33C46.8459 596.102 46.6453 595.888 46.43 595.69L39.84 590C38.5136 588.943 36.8295 588.441 35.1408 588.599C33.4521 588.757 31.8903 589.562 30.7829 590.847C29.6755 592.132 29.1087 593.795 29.2014 595.489C29.2941 597.182 30.039 598.774 31.28 599.93L37.9 605.64C37.9523 605.686 38.0093 605.726 38.07 605.76C37.95 606.04 37.85 606.33 37.74 606.62H29.52C27.7915 606.628 26.1362 607.319 24.9149 608.542C23.6936 609.765 23.0053 611.422 23 613.15V613.15C23 614.888 23.6898 616.555 24.9178 617.785C26.1459 619.015 27.8119 619.707 29.55 619.71H37.69L37.89 620.25H37.83L31.28 626.04C30.0428 627.21 29.3088 628.814 29.233 630.515C29.1571 632.216 29.7455 633.88 30.8738 635.154C32.002 636.429 33.5818 637.216 35.2792 637.347C36.9766 637.479 38.6586 636.946 39.97 635.86L46.51 630.07L46.65 629.92C47.3651 630.306 48.107 630.64 48.87 630.92V638.78C48.9362 640.474 49.6558 642.077 50.8778 643.252C52.0999 644.427 53.7295 645.084 55.425 645.084C57.1205 645.084 58.7501 644.427 59.9722 643.252C61.1942 642.077 61.9138 640.474 61.98 638.78V631C62.43 630.83 62.88 630.65 63.32 630.44L69.74 635.97C71.0621 637.101 72.7794 637.661 74.5141 637.526C76.2488 637.391 77.8588 636.572 78.99 635.25C80.1211 633.928 80.6808 632.211 80.5457 630.476C80.4107 628.741 79.5921 627.131 78.27 626L72.57 621.08C72.77 620.63 72.95 620.17 73.12 619.71H81.53C83.2698 619.71 84.9384 619.019 86.1686 617.789C87.3989 616.558 88.09 614.89 88.09 613.15V613.15C88.0873 611.412 87.395 609.746 86.1651 608.518C84.9351 607.29 83.2681 606.6 81.53 606.6V606.6Z" fill="#C7B8F8"/>
<path id="Vector_64" d="M81.53 606.6H73C72.84 606.16 72.66 605.73 72.47 605.31L78.68 599.81C79.3375 599.244 79.876 598.553 80.2642 597.777C80.6524 597.001 80.8826 596.156 80.9414 595.29C81.0002 594.424 80.8864 593.556 80.6067 592.734C80.327 591.913 79.8869 591.156 79.3119 590.506C78.737 589.856 78.0387 589.327 77.2576 588.949C76.4764 588.572 75.6281 588.353 74.7617 588.306C73.8954 588.259 73.0283 588.384 72.2109 588.675C71.3934 588.966 70.6419 589.416 70 590L63.46 595.79C63.36 595.88 63.28 595.99 63.18 596.09C62.77 595.9 62.35 595.73 61.92 595.57V587.64C61.8538 585.946 61.1342 584.343 59.9122 583.168C58.6901 581.993 57.0605 581.336 55.365 581.336C53.6695 581.336 52.0399 581.993 50.8178 583.168C49.5958 584.343 48.8762 585.946 48.81 587.64V595.57C48.2039 595.792 47.6098 596.046 47.03 596.33C46.8459 596.102 46.6453 595.888 46.43 595.69L39.84 590C38.5136 588.943 36.8295 588.441 35.1408 588.599C33.4521 588.757 31.8903 589.562 30.7829 590.847C29.6755 592.132 29.1087 593.795 29.2014 595.489C29.2941 597.182 30.039 598.774 31.28 599.93L37.9 605.64C37.9523 605.686 38.0093 605.726 38.07 605.76C37.95 606.04 37.85 606.33 37.74 606.62H29.52C27.7915 606.628 26.1362 607.319 24.9149 608.542C23.6936 609.765 23.0053 611.422 23 613.15V613.15C23 614.888 23.6898 616.555 24.9178 617.785C26.1459 619.015 27.8119 619.707 29.55 619.71H37.69L37.89 620.25H37.83L31.28 626.04C30.0428 627.21 29.3088 628.814 29.233 630.515C29.1571 632.216 29.7455 633.88 30.8738 635.154C32.002 636.429 33.5818 637.216 35.2792 637.347C36.9766 637.479 38.6586 636.946 39.97 635.86L46.51 630.07L46.65 629.92C47.3651 630.306 48.107 630.64 48.87 630.92V638.78C48.9362 640.474 49.6558 642.077 50.8778 643.252C52.0999 644.427 53.7295 645.084 55.425 645.084C57.1205 645.084 58.7501 644.427 59.9722 643.252C61.1942 642.077 61.9138 640.474 61.98 638.78V631C62.43 630.83 62.88 630.65 63.32 630.44L69.74 635.97C71.0621 637.101 72.7794 637.661 74.5141 637.526C76.2488 637.391 77.8588 636.572 78.99 635.25C80.1211 633.928 80.6808 632.211 80.5457 630.476C80.4107 628.741 79.5921 627.131 78.27 626L72.57 621.08C72.77 620.63 72.95 620.17 73.12 619.71H81.53C83.2698 619.71 84.9384 619.019 86.1686 617.789C87.3989 616.558 88.09 614.89 88.09 613.15V613.15C88.0873 611.412 87.395 609.746 86.1651 608.518C84.9351 607.29 83.2681 606.6 81.53 606.6V606.6Z" fill="#C7B8F8"/>
<path id="Vector_65" d="M81.53 606.6H73C72.84 606.16 72.66 605.73 72.47 605.31L78.68 599.81C79.3375 599.244 79.876 598.553 80.2642 597.777C80.6524 597.001 80.8826 596.156 80.9414 595.29C81.0002 594.424 80.8864 593.556 80.6067 592.734C80.327 591.913 79.8869 591.156 79.3119 590.506C78.737 589.856 78.0387 589.327 77.2576 588.949C76.4764 588.572 75.6281 588.353 74.7617 588.306C73.8954 588.259 73.0283 588.384 72.2109 588.675C71.3934 588.966 70.6419 589.416 70 590L63.46 595.79C63.36 595.88 63.28 595.99 63.18 596.09C62.77 595.9 62.35 595.73 61.92 595.57V587.64C61.8538 585.946 61.1342 584.343 59.9122 583.168C58.6901 581.993 57.0605 581.336 55.365 581.336C53.6695 581.336 52.0399 581.993 50.8178 583.168C49.5958 584.343 48.8762 585.946 48.81 587.64V595.57C48.2039 595.792 47.6098 596.046 47.03 596.33C46.8459 596.102 46.6453 595.888 46.43 595.69L39.84 590C38.5136 588.943 36.8295 588.441 35.1408 588.599C33.4521 588.757 31.8903 589.562 30.7829 590.847C29.6755 592.132 29.1087 593.795 29.2014 595.489C29.2941 597.182 30.039 598.774 31.28 599.93L37.9 605.64C37.9523 605.686 38.0093 605.726 38.07 605.76C37.95 606.04 37.85 606.33 37.74 606.62H29.52C27.7915 606.628 26.1362 607.319 24.9149 608.542C23.6936 609.765 23.0053 611.422 23 613.15V613.15C23 614.888 23.6898 616.555 24.9178 617.785C26.1459 619.015 27.8119 619.707 29.55 619.71H37.69L37.89 620.25H37.83L31.28 626.04C30.0428 627.21 29.3088 628.814 29.233 630.515C29.1571 632.216 29.7455 633.88 30.8738 635.154C32.002 636.429 33.5818 637.216 35.2792 637.347C36.9766 637.479 38.6586 636.946 39.97 635.86L46.51 630.07L46.65 629.92C47.3651 630.306 48.107 630.64 48.87 630.92V638.78C48.9362 640.474 49.6558 642.077 50.8778 643.252C52.0999 644.427 53.7295 645.084 55.425 645.084C57.1205 645.084 58.7501 644.427 59.9722 643.252C61.1942 642.077 61.9138 640.474 61.98 638.78V631C62.43 630.83 62.88 630.65 63.32 630.44L69.74 635.97C71.0621 637.101 72.7794 637.661 74.5141 637.526C76.2488 637.391 77.8588 636.572 78.99 635.25C80.1211 633.928 80.6808 632.211 80.5457 630.476C80.4107 628.741 79.5921 627.131 78.27 626L72.57 621.08C72.77 620.63 72.95 620.17 73.12 619.71H81.53C83.2698 619.71 84.9384 619.019 86.1686 617.789C87.3989 616.558 88.09 614.89 88.09 613.15V613.15C88.0873 611.412 87.395 609.746 86.1651 608.518C84.9351 607.29 83.2681 606.6 81.53 606.6V606.6Z" fill="#C7B8F8"/>
<path id="Vector_66" d="M151.33 630.75H142.84C142.68 630.31 142.5 629.89 142.3 629.47L148.52 623.97C149.757 622.8 150.491 621.196 150.567 619.495C150.643 617.794 150.054 616.13 148.926 614.856C147.798 613.581 146.218 612.794 144.521 612.663C142.823 612.531 141.141 613.064 139.83 614.15L133.29 619.94C133.192 620.035 133.098 620.135 133.01 620.24C132.6 620.05 132.17 619.88 131.74 619.72V611.79C131.674 610.096 130.954 608.493 129.732 607.318C128.51 606.143 126.881 605.486 125.185 605.486C123.49 605.486 121.86 606.143 120.638 607.318C119.416 608.493 118.696 610.096 118.63 611.79V619.72C118.03 619.94 117.44 620.2 116.86 620.48C116.673 620.255 116.473 620.041 116.26 619.84L109.64 614.13C108.994 613.528 108.233 613.063 107.403 612.762C106.574 612.462 105.691 612.331 104.81 612.38C103.929 612.428 103.066 612.654 102.274 613.043C101.482 613.433 100.776 613.978 100.2 614.647C99.6234 615.315 99.1879 616.093 98.9193 616.934C98.6508 617.775 98.5547 618.662 98.6369 619.541C98.7191 620.42 98.9779 621.273 99.3977 622.049C99.8175 622.826 100.39 623.51 101.08 624.06L107.69 629.77C107.748 629.813 107.808 629.854 107.87 629.89C107.75 630.17 107.64 630.46 107.54 630.75H99.32C97.5829 630.75 95.9168 631.44 94.6885 632.668C93.4601 633.897 92.77 635.563 92.77 637.3C92.77 639.038 93.4598 640.705 94.6879 641.935C95.9159 643.165 97.5819 643.857 99.32 643.86H107.46C107.52 644.04 107.59 644.23 107.66 644.41C107.66 644.41 107.66 644.41 107.6 644.41L101.05 650.2C100.372 650.761 99.8147 651.452 99.4098 652.233C99.0049 653.014 98.7612 653.869 98.6932 654.746C98.6252 655.623 98.7343 656.504 99.0139 657.338C99.2935 658.172 99.738 658.941 100.321 659.6C100.904 660.259 101.613 660.794 102.407 661.173C103.201 661.552 104.063 661.767 104.942 661.806C105.82 661.845 106.698 661.708 107.522 661.401C108.347 661.094 109.101 660.624 109.74 660.02L116.28 654.23L116.42 654.09C117.135 654.47 117.873 654.804 118.63 655.09V663C118.696 664.694 119.416 666.297 120.638 667.472C121.86 668.647 123.49 669.304 125.185 669.304C126.881 669.304 128.51 668.647 129.732 667.472C130.954 666.297 131.674 664.694 131.74 663V655.1C132.2 654.93 132.65 654.75 133.09 654.54L139.5 660.07C140.151 660.633 140.907 661.062 141.724 661.332C142.541 661.603 143.404 661.71 144.262 661.647C145.121 661.585 145.959 661.353 146.728 660.967C147.497 660.58 148.182 660.046 148.745 659.395C149.308 658.744 149.737 657.988 150.007 657.171C150.278 656.354 150.385 655.491 150.322 654.633C150.26 653.774 150.028 652.937 149.642 652.167C149.256 651.398 148.721 650.713 148.07 650.15L142.36 645.23C142.57 644.78 142.75 644.32 142.92 643.86H151.33C153.068 643.857 154.734 643.165 155.962 641.935C157.19 640.705 157.88 639.038 157.88 637.3C157.88 636.44 157.711 635.588 157.381 634.793C157.052 633.999 156.57 633.277 155.962 632.668C155.353 632.06 154.631 631.578 153.837 631.249C153.042 630.919 152.19 630.75 151.33 630.75V630.75Z" fill="#C7B8F8"/>
<path id="Vector_67" d="M151.33 630.75H142.84C142.68 630.31 142.5 629.89 142.3 629.47L148.52 623.97C149.757 622.8 150.491 621.196 150.567 619.495C150.643 617.794 150.054 616.13 148.926 614.856C147.798 613.581 146.218 612.794 144.521 612.663C142.823 612.531 141.141 613.064 139.83 614.15L133.29 619.94C133.192 620.035 133.098 620.135 133.01 620.24C132.6 620.05 132.17 619.88 131.74 619.72V611.79C131.674 610.096 130.954 608.493 129.732 607.318C128.51 606.143 126.881 605.486 125.185 605.486C123.49 605.486 121.86 606.143 120.638 607.318C119.416 608.493 118.696 610.096 118.63 611.79V619.72C118.03 619.94 117.44 620.2 116.86 620.48C116.673 620.255 116.473 620.041 116.26 619.84L109.64 614.13C108.994 613.528 108.233 613.063 107.403 612.762C106.574 612.462 105.691 612.331 104.81 612.38C103.929 612.428 103.066 612.654 102.274 613.043C101.482 613.433 100.776 613.978 100.2 614.647C99.6234 615.315 99.1879 616.093 98.9193 616.934C98.6508 617.775 98.5547 618.662 98.6369 619.541C98.7191 620.42 98.9779 621.273 99.3977 622.049C99.8175 622.826 100.39 623.51 101.08 624.06L107.69 629.77C107.748 629.813 107.808 629.854 107.87 629.89C107.75 630.17 107.64 630.46 107.54 630.75H99.32C97.5829 630.75 95.9168 631.44 94.6885 632.668C93.4601 633.897 92.77 635.563 92.77 637.3C92.77 639.038 93.4598 640.705 94.6879 641.935C95.9159 643.165 97.5819 643.857 99.32 643.86H107.46C107.52 644.04 107.59 644.23 107.66 644.41C107.66 644.41 107.66 644.41 107.6 644.41L101.05 650.2C100.372 650.761 99.8147 651.452 99.4098 652.233C99.0049 653.014 98.7612 653.869 98.6932 654.746C98.6252 655.623 98.7343 656.504 99.0139 657.338C99.2935 658.172 99.738 658.941 100.321 659.6C100.904 660.259 101.613 660.794 102.407 661.173C103.201 661.552 104.063 661.767 104.942 661.806C105.82 661.845 106.698 661.708 107.522 661.401C108.347 661.094 109.101 660.624 109.74 660.02L116.28 654.23L116.42 654.09C117.135 654.47 117.873 654.804 118.63 655.09V663C118.696 664.694 119.416 666.297 120.638 667.472C121.86 668.647 123.49 669.304 125.185 669.304C126.881 669.304 128.51 668.647 129.732 667.472C130.954 666.297 131.674 664.694 131.74 663V655.1C132.2 654.93 132.65 654.75 133.09 654.54L139.5 660.07C140.151 660.633 140.907 661.062 141.724 661.332C142.541 661.603 143.404 661.71 144.262 661.647C145.121 661.585 145.959 661.353 146.728 660.967C147.497 660.58 148.182 660.046 148.745 659.395C149.308 658.744 149.737 657.988 150.007 657.171C150.278 656.354 150.385 655.491 150.322 654.633C150.26 653.774 150.028 652.937 149.642 652.167C149.256 651.398 148.721 650.713 148.07 650.15L142.36 645.23C142.57 644.78 142.75 644.32 142.92 643.86H151.33C153.068 643.857 154.734 643.165 155.962 641.935C157.19 640.705 157.88 639.038 157.88 637.3C157.88 636.44 157.711 635.588 157.381 634.793C157.052 633.999 156.57 633.277 155.962 632.668C155.353 632.06 154.631 631.578 153.837 631.249C153.042 630.919 152.19 630.75 151.33 630.75V630.75Z" fill="#C7B8F8"/>
<path id="Vector_68" d="M151.33 630.75H142.84C142.68 630.31 142.5 629.89 142.3 629.47L148.52 623.97C149.757 622.8 150.491 621.196 150.567 619.495C150.643 617.794 150.054 616.13 148.926 614.856C147.798 613.581 146.218 612.794 144.521 612.663C142.823 612.531 141.141 613.064 139.83 614.15L133.29 619.94C133.192 620.035 133.098 620.135 133.01 620.24C132.6 620.05 132.17 619.88 131.74 619.72V611.79C131.674 610.096 130.954 608.493 129.732 607.318C128.51 606.143 126.881 605.486 125.185 605.486C123.49 605.486 121.86 606.143 120.638 607.318C119.416 608.493 118.696 610.096 118.63 611.79V619.72C118.03 619.94 117.44 620.2 116.86 620.48C116.673 620.255 116.473 620.041 116.26 619.84L109.64 614.13C108.994 613.528 108.233 613.063 107.403 612.762C106.574 612.462 105.691 612.331 104.81 612.38C103.929 612.428 103.066 612.654 102.274 613.043C101.482 613.433 100.776 613.978 100.2 614.647C99.6234 615.315 99.1879 616.093 98.9193 616.934C98.6508 617.775 98.5547 618.662 98.6369 619.541C98.7191 620.42 98.9779 621.273 99.3977 622.049C99.8175 622.826 100.39 623.51 101.08 624.06L107.69 629.77C107.748 629.813 107.808 629.854 107.87 629.89C107.75 630.17 107.64 630.46 107.54 630.75H99.32C97.5829 630.75 95.9168 631.44 94.6885 632.668C93.4601 633.897 92.77 635.563 92.77 637.3C92.77 639.038 93.4598 640.705 94.6879 641.935C95.9159 643.165 97.5819 643.857 99.32 643.86H107.46C107.52 644.04 107.59 644.23 107.66 644.41C107.66 644.41 107.66 644.41 107.6 644.41L101.05 650.2C100.372 650.761 99.8147 651.452 99.4098 652.233C99.0049 653.014 98.7612 653.869 98.6932 654.746C98.6252 655.623 98.7343 656.504 99.0139 657.338C99.2935 658.172 99.738 658.941 100.321 659.6C100.904 660.259 101.613 660.794 102.407 661.173C103.201 661.552 104.063 661.767 104.942 661.806C105.82 661.845 106.698 661.708 107.522 661.401C108.347 661.094 109.101 660.624 109.74 660.02L116.28 654.23L116.42 654.09C117.135 654.47 117.873 654.804 118.63 655.09V663C118.696 664.694 119.416 666.297 120.638 667.472C121.86 668.647 123.49 669.304 125.185 669.304C126.881 669.304 128.51 668.647 129.732 667.472C130.954 666.297 131.674 664.694 131.74 663V655.1C132.2 654.93 132.65 654.75 133.09 654.54L139.5 660.07C140.151 660.633 140.907 661.062 141.724 661.332C142.541 661.603 143.404 661.71 144.262 661.647C145.121 661.585 145.959 661.353 146.728 660.967C147.497 660.58 148.182 660.046 148.745 659.395C149.308 658.744 149.737 657.988 150.007 657.171C150.278 656.354 150.385 655.491 150.322 654.633C150.26 653.774 150.028 652.937 149.642 652.167C149.256 651.398 148.721 650.713 148.07 650.15L142.36 645.23C142.57 644.78 142.75 644.32 142.92 643.86H151.33C153.068 643.857 154.734 643.165 155.962 641.935C157.19 640.705 157.88 639.038 157.88 637.3C157.88 636.44 157.711 635.588 157.381 634.793C157.052 633.999 156.57 633.277 155.962 632.668C155.353 632.06 154.631 631.578 153.837 631.249C153.042 630.919 152.19 630.75 151.33 630.75V630.75Z" fill="#C7B8F8"/>
<path id="Vector_69" d="M151.33 630.75H142.84C142.68 630.31 142.5 629.89 142.3 629.47L148.52 623.97C149.757 622.8 150.491 621.196 150.567 619.495C150.643 617.794 150.054 616.13 148.926 614.856C147.798 613.581 146.218 612.794 144.521 612.663C142.823 612.531 141.141 613.064 139.83 614.15L133.29 619.94C133.192 620.035 133.098 620.135 133.01 620.24C132.6 620.05 132.17 619.88 131.74 619.72V611.79C131.674 610.096 130.954 608.493 129.732 607.318C128.51 606.143 126.881 605.486 125.185 605.486C123.49 605.486 121.86 606.143 120.638 607.318C119.416 608.493 118.696 610.096 118.63 611.79V619.72C118.03 619.94 117.44 620.2 116.86 620.48C116.673 620.255 116.473 620.041 116.26 619.84L109.64 614.13C108.994 613.528 108.233 613.063 107.403 612.762C106.574 612.462 105.691 612.331 104.81 612.38C103.929 612.428 103.066 612.654 102.274 613.043C101.482 613.433 100.776 613.978 100.2 614.647C99.6234 615.315 99.1879 616.093 98.9193 616.934C98.6508 617.775 98.5547 618.662 98.6369 619.541C98.7191 620.42 98.9779 621.273 99.3977 622.049C99.8175 622.826 100.39 623.51 101.08 624.06L107.69 629.77C107.748 629.813 107.808 629.854 107.87 629.89C107.75 630.17 107.64 630.46 107.54 630.75H99.32C97.5829 630.75 95.9168 631.44 94.6885 632.668C93.4601 633.897 92.77 635.563 92.77 637.3C92.77 639.038 93.4598 640.705 94.6879 641.935C95.9159 643.165 97.5819 643.857 99.32 643.86H107.46C107.52 644.04 107.59 644.23 107.66 644.41C107.66 644.41 107.66 644.41 107.6 644.41L101.05 650.2C100.372 650.761 99.8147 651.452 99.4098 652.233C99.0049 653.014 98.7612 653.869 98.6932 654.746C98.6252 655.623 98.7343 656.504 99.0139 657.338C99.2935 658.172 99.738 658.941 100.321 659.6C100.904 660.259 101.613 660.794 102.407 661.173C103.201 661.552 104.063 661.767 104.942 661.806C105.82 661.845 106.698 661.708 107.522 661.401C108.347 661.094 109.101 660.624 109.74 660.02L116.28 654.23L116.42 654.09C117.135 654.47 117.873 654.804 118.63 655.09V663C118.696 664.694 119.416 666.297 120.638 667.472C121.86 668.647 123.49 669.304 125.185 669.304C126.881 669.304 128.51 668.647 129.732 667.472C130.954 666.297 131.674 664.694 131.74 663V655.1C132.2 654.93 132.65 654.75 133.09 654.54L139.5 660.07C140.151 660.633 140.907 661.062 141.724 661.332C142.541 661.603 143.404 661.71 144.262 661.647C145.121 661.585 145.959 661.353 146.728 660.967C147.497 660.58 148.182 660.046 148.745 659.395C149.308 658.744 149.737 657.988 150.007 657.171C150.278 656.354 150.385 655.491 150.322 654.633C150.26 653.774 150.028 652.937 149.642 652.167C149.256 651.398 148.721 650.713 148.07 650.15L142.36 645.23C142.57 644.78 142.75 644.32 142.92 643.86H151.33C153.068 643.857 154.734 643.165 155.962 641.935C157.19 640.705 157.88 639.038 157.88 637.3C157.88 636.44 157.711 635.588 157.381 634.793C157.052 633.999 156.57 633.277 155.962 632.668C155.353 632.06 154.631 631.578 153.837 631.249C153.042 630.919 152.19 630.75 151.33 630.75V630.75Z" fill="#C7B8F8"/>
<path id="Vector_70" d="M151.33 630.75H142.84C142.68 630.31 142.5 629.89 142.3 629.47L148.52 623.97C149.757 622.8 150.491 621.196 150.567 619.495C150.643 617.794 150.054 616.13 148.926 614.856C147.798 613.581 146.218 612.794 144.521 612.663C142.823 612.531 141.141 613.064 139.83 614.15L133.29 619.94C133.192 620.035 133.098 620.135 133.01 620.24C132.6 620.05 132.17 619.88 131.74 619.72V611.79C131.674 610.096 130.954 608.493 129.732 607.318C128.51 606.143 126.881 605.486 125.185 605.486C123.49 605.486 121.86 606.143 120.638 607.318C119.416 608.493 118.696 610.096 118.63 611.79V619.72C118.03 619.94 117.44 620.2 116.86 620.48C116.673 620.255 116.473 620.041 116.26 619.84L109.64 614.13C108.994 613.528 108.233 613.063 107.403 612.762C106.574 612.462 105.691 612.331 104.81 612.38C103.929 612.428 103.066 612.654 102.274 613.043C101.482 613.433 100.776 613.978 100.2 614.647C99.6234 615.315 99.1879 616.093 98.9193 616.934C98.6508 617.775 98.5547 618.662 98.6369 619.541C98.7191 620.42 98.9779 621.273 99.3977 622.049C99.8175 622.826 100.39 623.51 101.08 624.06L107.69 629.77C107.748 629.813 107.808 629.854 107.87 629.89C107.75 630.17 107.64 630.46 107.54 630.75H99.32C97.5829 630.75 95.9168 631.44 94.6885 632.668C93.4601 633.897 92.77 635.563 92.77 637.3C92.77 639.038 93.4598 640.705 94.6879 641.935C95.9159 643.165 97.5819 643.857 99.32 643.86H107.46C107.52 644.04 107.59 644.23 107.66 644.41C107.66 644.41 107.66 644.41 107.6 644.41L101.05 650.2C100.372 650.761 99.8147 651.452 99.4098 652.233C99.0049 653.014 98.7612 653.869 98.6932 654.746C98.6252 655.623 98.7343 656.504 99.0139 657.338C99.2935 658.172 99.738 658.941 100.321 659.6C100.904 660.259 101.613 660.794 102.407 661.173C103.201 661.552 104.063 661.767 104.942 661.806C105.82 661.845 106.698 661.708 107.522 661.401C108.347 661.094 109.101 660.624 109.74 660.02L116.28 654.23L116.42 654.09C117.135 654.47 117.873 654.804 118.63 655.09V663C118.696 664.694 119.416 666.297 120.638 667.472C121.86 668.647 123.49 669.304 125.185 669.304C126.881 669.304 128.51 668.647 129.732 667.472C130.954 666.297 131.674 664.694 131.74 663V655.1C132.2 654.93 132.65 654.75 133.09 654.54L139.5 660.07C140.151 660.633 140.907 661.062 141.724 661.332C142.541 661.603 143.404 661.71 144.262 661.647C145.121 661.585 145.959 661.353 146.728 660.967C147.497 660.58 148.182 660.046 148.745 659.395C149.308 658.744 149.737 657.988 150.007 657.171C150.278 656.354 150.385 655.491 150.322 654.633C150.26 653.774 150.028 652.937 149.642 652.167C149.256 651.398 148.721 650.713 148.07 650.15L142.36 645.23C142.57 644.78 142.75 644.32 142.92 643.86H151.33C153.068 643.857 154.734 643.165 155.962 641.935C157.19 640.705 157.88 639.038 157.88 637.3C157.88 636.44 157.711 635.588 157.381 634.793C157.052 633.999 156.57 633.277 155.962 632.668C155.353 632.06 154.631 631.578 153.837 631.249C153.042 630.919 152.19 630.75 151.33 630.75V630.75Z" fill="#C7B8F8"/>
<path id="Vector_71" d="M151.33 630.75H142.84C142.68 630.31 142.5 629.89 142.3 629.47L148.52 623.97C149.757 622.8 150.491 621.196 150.567 619.495C150.643 617.794 150.054 616.13 148.926 614.856C147.798 613.581 146.218 612.794 144.521 612.663C142.823 612.531 141.141 613.064 139.83 614.15L133.29 619.94C133.192 620.035 133.098 620.135 133.01 620.24C132.6 620.05 132.17 619.88 131.74 619.72V611.79C131.674 610.096 130.954 608.493 129.732 607.318C128.51 606.143 126.881 605.486 125.185 605.486C123.49 605.486 121.86 606.143 120.638 607.318C119.416 608.493 118.696 610.096 118.63 611.79V619.72C118.03 619.94 117.44 620.2 116.86 620.48C116.673 620.255 116.473 620.041 116.26 619.84L109.64 614.13C108.994 613.528 108.233 613.063 107.403 612.762C106.574 612.462 105.691 612.331 104.81 612.38C103.929 612.428 103.066 612.654 102.274 613.043C101.482 613.433 100.776 613.978 100.2 614.647C99.6234 615.315 99.1879 616.093 98.9193 616.934C98.6508 617.775 98.5547 618.662 98.6369 619.541C98.7191 620.42 98.9779 621.273 99.3977 622.049C99.8175 622.826 100.39 623.51 101.08 624.06L107.69 629.77C107.748 629.813 107.808 629.854 107.87 629.89C107.75 630.17 107.64 630.46 107.54 630.75H99.32C97.5829 630.75 95.9168 631.44 94.6885 632.668C93.4601 633.897 92.77 635.563 92.77 637.3C92.77 639.038 93.4598 640.705 94.6879 641.935C95.9159 643.165 97.5819 643.857 99.32 643.86H107.46C107.52 644.04 107.59 644.23 107.66 644.41C107.66 644.41 107.66 644.41 107.6 644.41L101.05 650.2C100.372 650.761 99.8147 651.452 99.4098 652.233C99.0049 653.014 98.7612 653.869 98.6932 654.746C98.6252 655.623 98.7343 656.504 99.0139 657.338C99.2935 658.172 99.738 658.941 100.321 659.6C100.904 660.259 101.613 660.794 102.407 661.173C103.201 661.552 104.063 661.767 104.942 661.806C105.82 661.845 106.698 661.708 107.522 661.401C108.347 661.094 109.101 660.624 109.74 660.02L116.28 654.23L116.42 654.09C117.135 654.47 117.873 654.804 118.63 655.09V663C118.696 664.694 119.416 666.297 120.638 667.472C121.86 668.647 123.49 669.304 125.185 669.304C126.881 669.304 128.51 668.647 129.732 667.472C130.954 666.297 131.674 664.694 131.74 663V655.1C132.2 654.93 132.65 654.75 133.09 654.54L139.5 660.07C140.151 660.633 140.907 661.062 141.724 661.332C142.541 661.603 143.404 661.71 144.262 661.647C145.121 661.585 145.959 661.353 146.728 660.967C147.497 660.58 148.182 660.046 148.745 659.395C149.308 658.744 149.737 657.988 150.007 657.171C150.278 656.354 150.385 655.491 150.322 654.633C150.26 653.774 150.028 652.937 149.642 652.167C149.256 651.398 148.721 650.713 148.07 650.15L142.36 645.23C142.57 644.78 142.75 644.32 142.92 643.86H151.33C153.068 643.857 154.734 643.165 155.962 641.935C157.19 640.705 157.88 639.038 157.88 637.3C157.88 636.44 157.711 635.588 157.381 634.793C157.052 633.999 156.57 633.277 155.962 632.668C155.353 632.06 154.631 631.578 153.837 631.249C153.042 630.919 152.19 630.75 151.33 630.75V630.75Z" fill="#C7B8F8"/>
<path id="Vector_72" d="M151.33 630.75H142.84C142.68 630.31 142.5 629.89 142.3 629.47L148.52 623.97C149.757 622.8 150.491 621.196 150.567 619.495C150.643 617.794 150.054 616.13 148.926 614.856C147.798 613.581 146.218 612.794 144.521 612.663C142.823 612.531 141.141 613.064 139.83 614.15L133.29 619.94C133.192 620.035 133.098 620.135 133.01 620.24C132.6 620.05 132.17 619.88 131.74 619.72V611.79C131.674 610.096 130.954 608.493 129.732 607.318C128.51 606.143 126.881 605.486 125.185 605.486C123.49 605.486 121.86 606.143 120.638 607.318C119.416 608.493 118.696 610.096 118.63 611.79V619.72C118.03 619.94 117.44 620.2 116.86 620.48C116.673 620.255 116.473 620.041 116.26 619.84L109.64 614.13C108.994 613.528 108.233 613.063 107.403 612.762C106.574 612.462 105.691 612.331 104.81 612.38C103.929 612.428 103.066 612.654 102.274 613.043C101.482 613.433 100.776 613.978 100.2 614.647C99.6234 615.315 99.1879 616.093 98.9193 616.934C98.6508 617.775 98.5547 618.662 98.6369 619.541C98.7191 620.42 98.9779 621.273 99.3977 622.049C99.8175 622.826 100.39 623.51 101.08 624.06L107.69 629.77C107.748 629.813 107.808 629.854 107.87 629.89C107.75 630.17 107.64 630.46 107.54 630.75H99.32C97.5829 630.75 95.9168 631.44 94.6885 632.668C93.4601 633.897 92.77 635.563 92.77 637.3C92.77 639.038 93.4598 640.705 94.6879 641.935C95.9159 643.165 97.5819 643.857 99.32 643.86H107.46C107.52 644.04 107.59 644.23 107.66 644.41C107.66 644.41 107.66 644.41 107.6 644.41L101.05 650.2C100.372 650.761 99.8147 651.452 99.4098 652.233C99.0049 653.014 98.7612 653.869 98.6932 654.746C98.6252 655.623 98.7343 656.504 99.0139 657.338C99.2935 658.172 99.738 658.941 100.321 659.6C100.904 660.259 101.613 660.794 102.407 661.173C103.201 661.552 104.063 661.767 104.942 661.806C105.82 661.845 106.698 661.708 107.522 661.401C108.347 661.094 109.101 660.624 109.74 660.02L116.28 654.23L116.42 654.09C117.135 654.47 117.873 654.804 118.63 655.09V663C118.696 664.694 119.416 666.297 120.638 667.472C121.86 668.647 123.49 669.304 125.185 669.304C126.881 669.304 128.51 668.647 129.732 667.472C130.954 666.297 131.674 664.694 131.74 663V655.1C132.2 654.93 132.65 654.75 133.09 654.54L139.5 660.07C140.151 660.633 140.907 661.062 141.724 661.332C142.541 661.603 143.404 661.71 144.262 661.647C145.121 661.585 145.959 661.353 146.728 660.967C147.497 660.58 148.182 660.046 148.745 659.395C149.308 658.744 149.737 657.988 150.007 657.171C150.278 656.354 150.385 655.491 150.322 654.633C150.26 653.774 150.028 652.937 149.642 652.167C149.256 651.398 148.721 650.713 148.07 650.15L142.36 645.23C142.57 644.78 142.75 644.32 142.92 643.86H151.33C153.068 643.857 154.734 643.165 155.962 641.935C157.19 640.705 157.88 639.038 157.88 637.3C157.88 636.44 157.711 635.588 157.381 634.793C157.052 633.999 156.57 633.277 155.962 632.668C155.353 632.06 154.631 631.578 153.837 631.249C153.042 630.919 152.19 630.75 151.33 630.75V630.75Z" fill="#C7B8F8"/>
<path id="Vector_73" d="M55.53 621.9C60.3238 621.9 64.21 618.014 64.21 613.22C64.21 608.426 60.3238 604.54 55.53 604.54C50.7361 604.54 46.85 608.426 46.85 613.22C46.85 618.014 50.7361 621.9 55.53 621.9Z" fill="white"/>
<path id="Vector_74" d="M125.33 646.52C130.124 646.52 134.01 642.634 134.01 637.84C134.01 633.046 130.124 629.16 125.33 629.16C120.536 629.16 116.65 633.046 116.65 637.84C116.65 642.634 120.536 646.52 125.33 646.52Z" fill="white"/>
<path id="Vector_75" d="M136.73 794.75C133.478 794.75 130.3 793.786 127.596 791.979C124.893 790.173 122.786 787.605 121.541 784.601C120.297 781.597 119.972 778.292 120.606 775.103C121.24 771.914 122.806 768.984 125.105 766.685C127.404 764.386 130.334 762.82 133.523 762.186C136.712 761.552 140.017 761.877 143.021 763.121C146.025 764.366 148.593 766.473 150.399 769.176C152.206 771.88 153.17 775.058 153.17 778.31C153.165 782.669 151.431 786.847 148.349 789.929C145.267 793.011 141.089 794.745 136.73 794.75V794.75ZM136.73 765.87C134.27 765.87 131.864 766.6 129.819 767.966C127.773 769.333 126.178 771.276 125.237 773.549C124.295 775.823 124.049 778.324 124.529 780.737C125.009 783.15 126.194 785.367 127.934 787.106C129.673 788.846 131.89 790.031 134.303 790.511C136.716 790.991 139.217 790.745 141.491 789.803C143.764 788.861 145.707 787.267 147.073 785.221C148.44 783.176 149.17 780.77 149.17 778.31C149.162 775.013 147.849 771.854 145.518 769.522C143.186 767.191 140.027 765.878 136.73 765.87V765.87Z" fill="black"/>
<path id="Vector_76" d="M110.83 822.1C108.577 822.1 106.375 821.432 104.502 820.18C102.629 818.929 101.169 817.15 100.307 815.069C99.4449 812.988 99.2194 810.697 99.6589 808.488C100.098 806.279 101.183 804.249 102.776 802.656C104.369 801.063 106.398 799.978 108.608 799.539C110.817 799.099 113.108 799.325 115.189 800.187C117.27 801.049 119.049 802.509 120.3 804.382C121.552 806.255 122.22 808.457 122.22 810.71C122.217 813.73 121.016 816.626 118.881 818.761C116.746 820.897 113.85 822.097 110.83 822.1V822.1ZM110.83 803.32C109.368 803.32 107.94 803.753 106.724 804.565C105.509 805.378 104.562 806.532 104.003 807.882C103.443 809.232 103.297 810.718 103.582 812.152C103.867 813.585 104.571 814.902 105.604 815.936C106.638 816.969 107.955 817.673 109.388 817.958C110.822 818.243 112.308 818.097 113.658 817.538C115.008 816.978 116.163 816.031 116.975 814.816C117.787 813.6 118.22 812.172 118.22 810.71C118.217 808.751 117.438 806.873 116.053 805.487C114.667 804.102 112.789 803.323 110.83 803.32V803.32Z" fill="black"/>
</g>
</svg>
